# xmcd
#
# Track frame offsets:
#	150
#	14047
#	27531
#	39475
#	53392
#	65917
#	77645
#	92029
#	105647
#	117207
#	130641
#	142842
#	155293
#	169940
#	184239
#	198348
#	212163
#	226019
#	240042
#	255287
#	269563
#	283498
#	298156
#	311244
#
# Disc length: 4336 seconds
#
# Revision: 0
# Processed by: cddbd v1.5.2PL0 Copyright (c) Steve Scherf et al.
# Submitted via: EasyCDDAExtractor 15.3.0.1
#
DISCID=5710ee18
DTITLE=The Tenneva Ramblers and The Blue Ridge Highballers - Worried Blues CD D
DYEAR=1900
DGENRE=blues bluegrass country
TTITLE0=The Tenneva Ramblers - The Longest Train I Ever Saw
TTITLE1=The Tenneva Ramblers - Sweet Heaven When I Die
TTITLE2=The Tenneva Ramblers - Miss Lisa, Poor Girl
TTITLE3=The Tenneva Ramblers - Darling Where Have You Been So Long
TTITLE4=The Tenneva Ramblers - If I Die A Railroad Man
TTITLE5=The Tenneva Ramblers - I'm Goin' to Georgia
TTITLE6=The Tenneva Ramblers - The Curtains Of Night
TTITLE7=The Tenneva Ramblers - Seven Long Years In Prison
TTITLE8=The Tenneva Ramblers - When A Man Is Married
TTITLE9=The Tenneva Ramblers - Goodbye My Honey I'm Gone
TTITLE10=The Tenneva Ramblers - Tell It To Me
TTITLE11=The Tenneva Ramblers - Johnson Boy
TTITLE12=The Blue Ridge Highballers - Green Mountain Polka
TTITLE13=The Blue Ridge Highballers - Skidd More
TTITLE14=The Blue Ridge Highballers - Flop Eared Mule
TTITLE15=The Blue Ridge Highballers - Darneo
TTITLE16=The Blue Ridge Highballers - Soldier's Joy
TTITLE17=The Blue Ridge Highballers - Darling Child
TTITLE18=The Blue Ridge Highballers - Under The Double Eagle
TTITLE19=The Blue Ridge Highballers - Fourteen Days In Georgia
TTITLE20=The Blue Ridge Highballers - Sandy River Belle
TTITLE21=The Blue Ridge Highballers - Round Town Girls
TTITLE22=The Blue Ridge Highballers - Wish To The Lord I Had Never Been Born
TTITLE23=The Blue Ridge Highballers - Going Down To Lynchburg Town - Intro: Do
TTITLE23=n't Let Your Deal Go Down
EXTD=
EXTT0=
EXTT1=
EXTT2=
EXTT3=
EXTT4=
EXTT5=
EXTT6=
EXTT7=
EXTT8=
EXTT9=
EXTT10=
EXTT11=
EXTT12=
EXTT13=
EXTT14=
EXTT15=
EXTT16=
EXTT17=
EXTT18=
EXTT19=
EXTT20=
EXTT21=
EXTT22=
EXTT23=
PLAYORDER=
